<?xml version="1.0" encoding="UTF-8" standalone="no"?>
<svg id="turtl-logo" xmlns="http://www.w3.org/2000/svg" height="600" width="400" version="1.1">
 <path id="area-white" style="stroke-width:1.148;fill:#fff" d="m200 271.2h-25.26v-4.593l-2.296-2.296-11.48-2.296h-13.78v-4.593l-2.296-2.296-2.296-2.296h-4.593v-4.593l-2.296-2.296-4.593-2.296-4.593-6.889v-11.48c66.31-12.44 72.86-12.44 147 0v11.48l-4.593 6.889-4.593 2.296-2.296 2.296v4.593h-4.593l-2.296 2.296-2.296 2.296v4.593h-13.78l-11.48 2.296-2.296 2.296v4.593z"/>
 <path id="area-green" style="stroke-width:1.148;fill:#8fc46a" d="m200 242.3h-33.87v-9.008h-18.08v-9.008h-18.08l-2.296-15.72 2.296-15.72h9.042v-18.02h9.042v-18.02h9.042v-9.008h9.042v-9.008h18.08v-9.008l16-2.4 15.79 2.296v9.008h18.08v9.008h9.042v9.008h9.042v18.02h9.042v18.02h9.042l2.296 15.72-2.296 15.72h-18.08v9.008h-18.08v9.008z"/>
 <path id="area-black" style="stroke-width:1.148" d="m200 273.5h-27.56v-9.186h-27.5v-9.186h-9.186v-9.186h-9.186v-9.186h9.186v9.186h9.186v9.186h27.56v9.186h55.1v-9.186h27.56v-9.186h9.186v-9.186h9.186v9.186h-9.186v9.186h-9.186v9.186h-27.6v9.186zm0-27.56h-36.74v-9.186h-18.37v-9.186h-18.37v-36.74h9.186v-18.37h9.186v-18.37h9.186v-9.186h9.186v-9.186h18.37v-9.186h36.7v9.186h18.37v9.186h9.186v9.186h9.186v18.37h9.186v18.37h9.186v36.74h-18.37v9.186h-18.37v9.186zm0-9.185h27.56v-18.37h9.186v9.186h9.186v-9.186h18.37v-18.3h-27.56v-9.186h18.37v-9.186h-9.186v-18.37h-9.186v-9.186h-18.37v-9.186h-9.186v-9.186h-18.4v9.186h-9.186v9.186h-18.37v9.186h-9.186v18.37h-9.186v9.186h18.37v9.2h-27.56v18.37h18.37v9.186h9.186v-9.186h9.186v18.37zm-22.96-18.37h-4.593v-9.186h9.186v-9.1h-9.186v-9.186h-9.186v-18.37h9.186v-9.186h9.186v-9.186h36.8v9.186h9.186v9.186h9.186v18.37h-9.186v9.2h-9.186v9.186h9.186v9.186h-9.186v-9.186h-36.8v9.186zm23-18.3h18.37v-9.186h9.186v-18.37h-9.186v-9.186h-36.8v9.186h-9.186v18.37h9.186v9.2z"/>
 <text y="373.77057" x="158.4082" xml:space="preserve" style="letter-spacing:0px;font-size:40px;word-spacing:0px;font-family:sans-serif;line-height:0px;fill:#dbdbdb"><tspan x="158.4082" y="373.77057">Turtl</tspan></text>
 <text y="416.61926" x="130.32896" xml:space="preserve" style="letter-spacing:0px;font-size:15.06px;word-spacing:0px;font-family:sans-serif;line-height:0px;fill:#dbdbdb"><tspan x="130.32896" style="stroke-width:.3764px;fill:#dbdbdb" y="416.61926">Your Private Space</tspan></text>
</svg>
